<mxfile host="65bd71144e">
    <diagram id="1IzmHUt2CMy6d0kajohg" name="Page-1">
        <mxGraphModel dx="1058" dy="773" grid="1" gridSize="10" guides="1" tooltips="1" connect="1" arrows="1" fold="1" page="1" pageScale="1" pageWidth="827" pageHeight="1169" math="0" shadow="0">
            <root>
                <mxCell id="0"/>
                <mxCell id="1" parent="0"/>
                <mxCell id="2" value="" style="outlineConnect=0;dashed=0;verticalLabelPosition=bottom;verticalAlign=top;align=center;html=1;shape=mxgraph.aws3.ec2_compute_container_3;fillColor=#F58534;gradientColor=none;" vertex="1" parent="1">
                    <mxGeometry x="210" y="540" width="60" height="34.5" as="geometry"/>
                </mxCell>
            </root>
        </mxGraphModel>
    </diagram>
</mxfile>